{
  "accessors": [
    {
      "bufferView": 2,
      "componentType": 5126,
      "count": 25492,
      "max": [
        4.907740116119385,
        2.816070079803467,
        5.098999977111816
      ],
      "min": [
        -4.907740116119385,
        -3.382859945297241,
        -4.612929821014404
      ],
      "type": "VEC3"
    },
    {
      "bufferView": 2,
      "byteOffset": 305904,
      "componentType": 5126,
      "count": 25492,
      "max": [
        0.9996272921562195,
        0.999998152256012,
        0.999915599822998
      ],
      "min": [
        -0.9996272921562195,
        -0.999971330165863,
        -1.0
      ],
      "type": "VEC3"
    },
    {
      "bufferView": 1,
      "componentType": 5126,
      "count": 25492,
      "max": [
        0.5043100118637085,
        0.7187700271606445
      ],
      "min": [
        0.2887299954891205,
        0.05226999893784523
      ],
      "type": "VEC2"
    },
    {
      "bufferView": 0,
      "componentType": 5125,
      "count": 92304,
      "type": "SCALAR"
    },
    {
      "bufferView": 2,
      "byteOffset": 611808,
      "componentType": 5126,
      "count": 3780,
      "max": [
        0.5656700134277344,
        -2.6276700496673584,
        3.4412200450897217
      ],
      "min": [
        -0.5656700134277344,
        -2.955709934234619,
        3.0987000465393066
      ],
      "type": "VEC3"
    },
    {
      "bufferView": 2,
      "byteOffset": 657168,
      "componentType": 5126,
      "count": 3780,
      "max": [
        0.999082624912262,
        1.0,
        0.9926605224609375
      ],
      "min": [
        -0.999082624912262,
        -0.9991358518600464,
        -0.9983235597610474
      ],
      "type": "VEC3"
    },
    {
      "bufferView": 1,
      "byteOffset": 203936,
      "componentType": 5126,
      "count": 3780,
      "max": [
        0.47145000100135803,
        0.7935699820518494
      ],
      "min": [
        0.4652400016784668,
        0.7873600125312805
      ],
      "type": "VEC2"
    },
    {
      "bufferView": 0,
      "byteOffset": 369216,
      "componentType": 5125,
      "count": 5760,
      "type": "SCALAR"
    }
  ],
  "asset": {
    "extras": {
      "author": "timeforrick (https://sketchfab.com/timeforrick)",
      "license": "CC-BY-4.0 (http://creativecommons.org/licenses/by/4.0/)",
      "source": "https://sketchfab.com/3d-models/penguin-club-penguin-646e334dea5249708138b0ea2d6a6fdb",
      "title": "Penguin (Club Penguin)"
    },
    "generator": "Sketchfab-12.64.0",
    "version": "2.0"
  },
  "bufferViews": [
    {
      "buffer": 0,
      "byteLength": 392256,
      "name": "floatBufferViews",
      "target": 34963
    },
    {
      "buffer": 0,
      "byteLength": 234176,
      "byteOffset": 392256,
      "byteStride": 8,
      "name": "floatBufferViews",
      "target": 34962
    },
    {
      "buffer": 0,
      "byteLength": 702528,
      "byteOffset": 626432,
      "byteStride": 12,
      "name": "floatBufferViews",
      "target": 34962
    }
  ],
  "buffers": [
    {
      "byteLength": 1328960,
      "uri": "scene.bin"
    }
  ],
  "images": [
    {
      "uri": "textures/Material_baseColor.png"
    }
  ],
  "materials": [
    {
      "doubleSided": true,
      "name": "Material",
      "pbrMetallicRoughness": {
        "baseColorTexture": {
          "index": 0
        },
        "metallicFactor": 0.0,
        "roughnessFactor": 0.6
      }
    }
  ],
  "meshes": [
    {
      "name": "Cube_0",
      "primitives": [
        {
          "attributes": {
            "NORMAL": 1,
            "POSITION": 0,
            "TEXCOORD_0": 2
          },
          "indices": 3,
          "material": 0,
          "mode": 4
        }
      ]
    },
    {
      "name": "Cube.001_0",
      "primitives": [
        {
          "attributes": {
            "NORMAL": 5,
            "POSITION": 4,
            "TEXCOORD_0": 6
          },
          "indices": 7,
          "material": 0,
          "mode": 4
        }
      ]
    }
  ],
  "nodes": [
    {
      "children": [
        1
      ],
      "matrix": [
        1.0,
        0.0,
        0.0,
        0.0,
        0.0,
        2.220446049250313e-16,
        -1.0,
        0.0,
        0.0,
        1.0,
        2.220446049250313e-16,
        0.0,
        0.0,
        0.0,
        0.0,
        1.0
      ],
      "name": "Sketchfab_model"
    },
    {
      "children": [
        2,
        4,
        6
      ],
      "name": "Root"
    },
    {
      "children": [
        3
      ],
      "matrix": [
        -0.29086000000000006,
        0.9551700000000001,
        -0.05519000000000001,
        0.0,
        -0.7711,
        -0.19988000000000003,
        0.6045200000000001,
        0.0,
        0.5663900000000001,
        0.21839000000000003,
        0.7946700000000001,
        0.0,
        4.076250000000001,
        1.00545,
        5.903860000000001,
        1.0
      ],
      "name": "Lamp"
    },
    {
      "name": "Lamp"
    },
    {
      "children": [
        5
      ],
      "name": "Cube"
    },
    {
      "mesh": 0,
      "name": "Cube_0"
    },
    {
      "children": [
        7
      ],
      "matrix": [
        1.0,
        0.0,
        0.0,
        0.0,
        0.0,
        1.0,
        0.0,
        0.0,
        0.0,
        0.0,
        1.0,
        0.0,
        0.0,
        1.75343,
        0.0,
        1.0
      ],
      "name": "Cube.001"
    },
    {
      "mesh": 1,
      "name": "Cube.001_0"
    }
  ],
  "samplers": [
    {
      "magFilter": 9729,
      "minFilter": 9987,
      "wrapS": 10497,
      "wrapT": 10497
    }
  ],
  "scene": 0,
  "scenes": [
    {
      "name": "Sketchfab_Scene",
      "nodes": [
        0
      ]
    }
  ],
  "textures": [
    {
      "sampler": 0,
      "source": 0
    }
  ]
}
